<?xml version="1.0" encoding="UTF-8" standalone="no"?><svg xmlns="http://www.w3.org/2000/svg" xmlns:xlink="http://www.w3.org/1999/xlink" contentStyleType="text/css" height="457px" preserveAspectRatio="none" style="width:519px;height:457px;background:#FFFFFF;" version="1.1" viewBox="0 0 519 457" width="519px" zoomAndPan="magnify"><defs/><g><ellipse cx="298.25" cy="20" fill="#222222" rx="10" ry="10" style="stroke:#222222;stroke-width:1.0;"/><path d="M10,245.1406 L10,300.5391 L89,300.5391 L89,255.1406 L79,245.1406 L10,245.1406 " fill="#FEFFDD" style="stroke:#181818;stroke-width:0.5;"/><path d="M79,245.1406 L79,255.1406 L89,255.1406 L79,245.1406 " fill="#FEFFDD" style="stroke:#181818;stroke-width:0.5;"/><ellipse cx="21.5" cy="257.7734" fill="#000000" rx="2.5" ry="2.5" style="stroke:#000000;stroke-width:0.0;"/><text fill="#000000" font-family="sans-serif" font-size="13" lengthAdjust="spacing" textLength="24" x="28" y="262.2075">one</text><ellipse cx="21.5" cy="272.9063" fill="#000000" rx="2.5" ry="2.5" style="stroke:#000000;stroke-width:0.0;"/><text fill="#000000" font-family="sans-serif" font-size="13" lengthAdjust="spacing" textLength="22" x="28" y="277.3403">two</text><ellipse cx="21.5" cy="288.0391" fill="#000000" rx="2.5" ry="2.5" style="stroke:#000000;stroke-width:0.0;"/><text fill="#000000" font-family="sans-serif" font-size="13" lengthAdjust="spacing" textLength="46" x="28" y="292.4731">three...</text><polygon fill="#F1F1F1" points="225.25,50,371.25,50,383.25,62,371.25,74,225.25,74,213.25,62,225.25,50" style="stroke:#181818;stroke-width:0.5;"/><text fill="#000000" font-family="sans-serif" font-size="11" lengthAdjust="spacing" textLength="146" x="225.25" y="65.8081">Has selected Jurisdiction?</text><text fill="#000000" font-family="sans-serif" font-size="11" lengthAdjust="spacing" textLength="20" x="193.25" y="59.4058">yes</text><text fill="#000000" font-family="sans-serif" font-size="11" lengthAdjust="spacing" textLength="14" x="383.25" y="59.4058">no</text><rect fill="#F1F1F1" height="33.9688" rx="12.5" ry="12.5" style="stroke:#181818;stroke-width:0.5;" width="137" x="115" y="224.3711"/><text fill="#000000" font-family="sans-serif" font-size="12" lengthAdjust="spacing" textLength="117" x="125" y="245.5098">LoginUIComponent</text><polygon fill="#F1F1F1" points="128,175.9688,239,175.9688,251,187.9688,239,199.9688,128,199.9688,116,187.9688,128,175.9688" style="stroke:#181818;stroke-width:0.5;"/><text fill="#000000" font-family="sans-serif" font-size="11" lengthAdjust="spacing" textLength="14" x="187.5" y="210.1792">no</text><text fill="#000000" font-family="sans-serif" font-size="11" lengthAdjust="spacing" textLength="111" x="128" y="191.7769">Has sessionToken?</text><polygon fill="#F1F1F1" points="183.5,282.7422,195.5,294.7422,183.5,306.7422,171.5,294.7422,183.5,282.7422" style="stroke:#181818;stroke-width:0.5;"/><polygon fill="#F1F1F1" points="183.5,119,195.5,131,183.5,143,171.5,131,183.5,119" style="stroke:#181818;stroke-width:0.5;"/><polygon fill="#F1F1F1" points="129,326.7422,238,326.7422,250,338.7422,238,350.7422,129,350.7422,117,338.7422,129,326.7422" style="stroke:#181818;stroke-width:0.5;"/><text fill="#000000" font-family="sans-serif" font-size="11" lengthAdjust="spacing" textLength="105" x="133" y="342.5503">Has sessionToken</text><text fill="#000000" font-family="sans-serif" font-size="11" lengthAdjust="spacing" textLength="14" x="250" y="336.1479">no</text><rect fill="#F1F1F1" height="33.9688" rx="12.5" ry="12.5" style="stroke:#181818;stroke-width:0.5;" width="169" x="99" y="370.7422"/><text fill="#000000" font-family="sans-serif" font-size="12" lengthAdjust="spacing" textLength="149" x="109" y="391.8809">MainLobbyUIComponent</text><ellipse cx="183.5" cy="435.7109" fill="none" rx="11" ry="11" style="stroke:#222222;stroke-width:1.0;"/><ellipse cx="183.5" cy="435.7109" fill="#222222" rx="6" ry="6" style="stroke:#111111;stroke-width:1.0;"/><rect fill="#F1F1F1" height="33.9688" rx="12.5" ry="12.5" style="stroke:#181818;stroke-width:0.5;" width="190" x="318" y="84"/><text fill="#000000" font-family="sans-serif" font-size="12" lengthAdjust="spacing" textLength="170" x="328" y="105.1387">StateChooserUIComponent</text><ellipse cx="414.5" cy="154.4688" fill="#A80036" rx="1.5" ry="1.5" style="stroke:#A80036;stroke-width:1.0;"/><ellipse cx="185" cy="85.5" fill="#A80036" rx="1.5" ry="1.5" style="stroke:#A80036;stroke-width:1.0;"/><line style="stroke:#A80036;stroke-width:1.0;" x1="413" x2="183.5" y1="152.9688" y2="152.9688"/><line style="stroke:#A80036;stroke-width:1.0;" x1="183.5" x2="183.5" y1="84" y2="152.9688"/><line style="stroke:#181818;stroke-width:1.0;" x1="183.5" x2="183.5" y1="199.9688" y2="224.3711"/><polygon fill="#181818" points="179.5,214.3711,183.5,224.3711,187.5,214.3711,183.5,218.3711" style="stroke:#181818;stroke-width:1.0;"/><line style="stroke:#181818;stroke-width:1.0;" x1="251" x2="263" y1="187.9688" y2="187.9688"/><polygon fill="#181818" points="259,231.3555,263,241.3555,267,231.3555,263,235.3555" style="stroke:#181818;stroke-width:1.0;"/><line style="stroke:#181818;stroke-width:1.0;" x1="263" x2="263" y1="187.9688" y2="294.7422"/><line style="stroke:#181818;stroke-width:1.0;" x1="263" x2="195.5" y1="294.7422" y2="294.7422"/><polygon fill="#181818" points="205.5,290.7422,195.5,294.7422,205.5,298.7422,201.5,294.7422" style="stroke:#181818;stroke-width:1.0;"/><line style="stroke:#181818;stroke-width:1.0;" x1="183.5" x2="183.5" y1="258.3398" y2="282.7422"/><polygon fill="#181818" points="179.5,272.7422,183.5,282.7422,187.5,272.7422,183.5,276.7422" style="stroke:#181818;stroke-width:1.0;"/><line style="stroke:#181818;stroke-width:1.0;" x1="183.5" x2="183.5" y1="143" y2="175.9688"/><polygon fill="#181818" points="179.5,165.9688,183.5,175.9688,187.5,165.9688,183.5,169.9688" style="stroke:#181818;stroke-width:1.0;"/><line style="stroke:#181818;stroke-width:1.0;" x1="250" x2="286" y1="338.7422" y2="338.7422"/><polygon fill="#181818" points="282,251.3555,286,241.3555,290,251.3555,286,247.3555" style="stroke:#181818;stroke-width:1.0;"/><line style="stroke:#181818;stroke-width:1.0;" x1="286" x2="286" y1="131" y2="338.7422"/><line style="stroke:#181818;stroke-width:1.0;" x1="286" x2="195.5" y1="131" y2="131"/><polygon fill="#181818" points="205.5,127,195.5,131,205.5,135,201.5,131" style="stroke:#181818;stroke-width:1.0;"/><line style="stroke:#181818;stroke-width:1.0;" x1="183.5" x2="183.5" y1="306.7422" y2="326.7422"/><polygon fill="#181818" points="179.5,316.7422,183.5,326.7422,187.5,316.7422,183.5,320.7422" style="stroke:#181818;stroke-width:1.0;"/><line style="stroke:#181818;stroke-width:1.0;" x1="213.25" x2="183.5" y1="62" y2="62"/><line style="stroke:#181818;stroke-width:1.0;" x1="183.5" x2="183.5" y1="62" y2="119"/><polygon fill="#181818" points="179.5,109,183.5,119,187.5,109,183.5,113" style="stroke:#181818;stroke-width:1.0;"/><line style="stroke:#181818;stroke-width:1.0;" x1="183.5" x2="183.5" y1="350.7422" y2="370.7422"/><polygon fill="#181818" points="179.5,360.7422,183.5,370.7422,187.5,360.7422,183.5,364.7422" style="stroke:#181818;stroke-width:1.0;"/><line style="stroke:#181818;stroke-width:1.0;" x1="183.5" x2="183.5" y1="404.7109" y2="424.7109"/><polygon fill="#181818" points="179.5,414.7109,183.5,424.7109,187.5,414.7109,183.5,418.7109" style="stroke:#181818;stroke-width:1.0;"/><line style="stroke:#181818;stroke-width:1.0;" x1="413" x2="413" y1="117.9688" y2="152.9688"/><polygon fill="#181818" points="409,142.9688,413,152.9688,417,142.9688,413,146.9688" style="stroke:#181818;stroke-width:1.0;"/><line style="stroke:#181818;stroke-width:1.0;" x1="383.25" x2="413" y1="62" y2="62"/><line style="stroke:#181818;stroke-width:1.0;" x1="413" x2="413" y1="62" y2="84"/><polygon fill="#181818" points="409,74,413,84,417,74,413,78" style="stroke:#181818;stroke-width:1.0;"/><line style="stroke:#181818;stroke-width:1.0;" x1="298.25" x2="298.25" y1="30" y2="50"/><polygon fill="#181818" points="294.25,40,298.25,50,302.25,40,298.25,44" style="stroke:#181818;stroke-width:1.0;"/><!--SRC=[NO-nRi9G34NtV8N7f4C-W0uCB6r59ygCNiWDiUhQqRCHukz9We0gaotx-CZN8-KekAFo8pav1CT0Ir_dpDxoCTXqNL7qK2glyAeWajH0I1evY9rOnqd6W1HZG_GokO-tF_QBbq2jcY6YrNOwtNzkx6ymXSRxl82st3s5TEbPKDBILn7xGxRwJgnRQvhhGkPXGm5nFCbTfC2cDtFa1Nooi7-9xc-e1KZGJS7UQ6Jd6XUxrpu3TLrFC4reSGC0]--></g></svg>