<?xml version="1.0" encoding="UTF-8" standalone="no"?><svg xmlns="http://www.w3.org/2000/svg" xmlns:xlink="http://www.w3.org/1999/xlink" contentStyleType="text/css" height="453px" preserveAspectRatio="none" style="width:403px;height:453px;background:#FFFFFF;" version="1.1" viewBox="0 0 403 453" width="403px" zoomAndPan="magnify"><defs/><g><ellipse cx="198.25" cy="20" fill="#222222" rx="10" ry="10" style="stroke:#222222;stroke-width:1.0;"/><polygon fill="#F1F1F1" points="130.25,50,266.25,50,278.25,62,266.25,74,130.25,74,118.25,62,130.25,50" style="stroke:#181818;stroke-width:0.5;"/><text fill="#000000" font-family="sans-serif" font-size="11" lengthAdjust="spacing" textLength="136" x="130.25" y="66.1572">Has selected Jurisdiction?</text><text fill="#000000" font-family="sans-serif" font-size="11" lengthAdjust="spacing" textLength="18" x="100.25" y="59.6797">yes</text><text fill="#000000" font-family="sans-serif" font-size="11" lengthAdjust="spacing" textLength="14" x="278.25" y="59.6797">no</text><rect fill="#F1F1F1" height="34.1328" rx="12.5" ry="12.5" style="stroke:#181818;stroke-width:0.5;" width="127" x="27" y="224.6104"/><text fill="#000000" font-family="sans-serif" font-size="12" lengthAdjust="spacing" textLength="107" x="37" y="246.2119">LoginUIComponent</text><polygon fill="#F1F1F1" points="39.5,176.1328,141.5,176.1328,153.5,188.1328,141.5,200.1328,39.5,200.1328,27.5,188.1328,39.5,176.1328" style="stroke:#181818;stroke-width:0.5;"/><text fill="#000000" font-family="sans-serif" font-size="11" lengthAdjust="spacing" textLength="14" x="94.5" y="210.7676">no</text><text fill="#000000" font-family="sans-serif" font-size="11" lengthAdjust="spacing" textLength="102" x="39.5" y="192.29">Has sessionToken?</text><polygon fill="#F1F1F1" points="90.5,278.7432,102.5,290.7432,90.5,302.7432,78.5,290.7432,90.5,278.7432" style="stroke:#181818;stroke-width:0.5;"/><polygon fill="#F1F1F1" points="90.5,119,102.5,131,90.5,143,78.5,131,90.5,119" style="stroke:#181818;stroke-width:0.5;"/><polygon fill="#F1F1F1" points="40.5,322.7432,140.5,322.7432,152.5,334.7432,140.5,346.7432,40.5,346.7432,28.5,334.7432,40.5,322.7432" style="stroke:#181818;stroke-width:0.5;"/><text fill="#000000" font-family="sans-serif" font-size="11" lengthAdjust="spacing" textLength="97" x="43.5" y="338.9004">Has sessionToken</text><text fill="#000000" font-family="sans-serif" font-size="11" lengthAdjust="spacing" textLength="14" x="152.5" y="332.4229">no</text><rect fill="#F1F1F1" height="34.1328" rx="12.5" ry="12.5" style="stroke:#181818;stroke-width:0.5;" width="159" x="11" y="366.7432"/><text fill="#000000" font-family="sans-serif" font-size="12" lengthAdjust="spacing" textLength="139" x="21" y="388.3447">MainLobbyUIComponent</text><ellipse cx="90.5" cy="431.876" fill="none" rx="11" ry="11" style="stroke:#222222;stroke-width:1.0;"/><ellipse cx="90.5" cy="431.876" fill="#222222" rx="6" ry="6" style="stroke:#111111;stroke-width:1.0;"/><rect fill="#F1F1F1" height="34.1328" rx="12.5" ry="12.5" style="stroke:#181818;stroke-width:0.5;" width="172" x="220" y="84"/><text fill="#000000" font-family="sans-serif" font-size="12" lengthAdjust="spacing" textLength="152" x="230" y="105.6016">StateChooserUIComponent</text><ellipse cx="307.5" cy="154.6328" fill="#A80036" rx="1.5" ry="1.5" style="stroke:#A80036;stroke-width:1.0;"/><ellipse cx="92" cy="85.5" fill="#A80036" rx="1.5" ry="1.5" style="stroke:#A80036;stroke-width:1.0;"/><line style="stroke:#A80036;stroke-width:1.0;" x1="306" x2="90.5" y1="153.1328" y2="153.1328"/><line style="stroke:#A80036;stroke-width:1.0;" x1="90.5" x2="90.5" y1="84" y2="153.1328"/><line style="stroke:#181818;stroke-width:1.0;" x1="90.5" x2="90.5" y1="200.1328" y2="224.6104"/><polygon fill="#181818" points="86.5,214.6104,90.5,224.6104,94.5,214.6104,90.5,218.6104" style="stroke:#181818;stroke-width:1.0;"/><line style="stroke:#181818;stroke-width:1.0;" x1="153.5" x2="165.5" y1="188.1328" y2="188.1328"/><polygon fill="#181818" points="161.5,231.6768,165.5,241.6768,169.5,231.6768,165.5,235.6768" style="stroke:#181818;stroke-width:1.0;"/><line style="stroke:#181818;stroke-width:1.0;" x1="165.5" x2="165.5" y1="188.1328" y2="290.7432"/><line style="stroke:#181818;stroke-width:1.0;" x1="165.5" x2="102.5" y1="290.7432" y2="290.7432"/><polygon fill="#181818" points="112.5,286.7432,102.5,290.7432,112.5,294.7432,108.5,290.7432" style="stroke:#181818;stroke-width:1.0;"/><line style="stroke:#181818;stroke-width:1.0;" x1="90.5" x2="90.5" y1="258.7432" y2="278.7432"/><polygon fill="#181818" points="86.5,268.7432,90.5,278.7432,94.5,268.7432,90.5,272.7432" style="stroke:#181818;stroke-width:1.0;"/><line style="stroke:#181818;stroke-width:1.0;" x1="90.5" x2="90.5" y1="143" y2="176.1328"/><polygon fill="#181818" points="86.5,166.1328,90.5,176.1328,94.5,166.1328,90.5,170.1328" style="stroke:#181818;stroke-width:1.0;"/><line style="stroke:#181818;stroke-width:1.0;" x1="152.5" x2="188" y1="334.7432" y2="334.7432"/><polygon fill="#181818" points="184,251.6768,188,241.6768,192,251.6768,188,247.6768" style="stroke:#181818;stroke-width:1.0;"/><line style="stroke:#181818;stroke-width:1.0;" x1="188" x2="188" y1="131" y2="334.7432"/><line style="stroke:#181818;stroke-width:1.0;" x1="188" x2="102.5" y1="131" y2="131"/><polygon fill="#181818" points="112.5,127,102.5,131,112.5,135,108.5,131" style="stroke:#181818;stroke-width:1.0;"/><line style="stroke:#181818;stroke-width:1.0;" x1="90.5" x2="90.5" y1="302.7432" y2="322.7432"/><polygon fill="#181818" points="86.5,312.7432,90.5,322.7432,94.5,312.7432,90.5,316.7432" style="stroke:#181818;stroke-width:1.0;"/><line style="stroke:#181818;stroke-width:1.0;" x1="118.25" x2="90.5" y1="62" y2="62"/><line style="stroke:#181818;stroke-width:1.0;" x1="90.5" x2="90.5" y1="62" y2="119"/><polygon fill="#181818" points="86.5,109,90.5,119,94.5,109,90.5,113" style="stroke:#181818;stroke-width:1.0;"/><line style="stroke:#181818;stroke-width:1.0;" x1="90.5" x2="90.5" y1="346.7432" y2="366.7432"/><polygon fill="#181818" points="86.5,356.7432,90.5,366.7432,94.5,356.7432,90.5,360.7432" style="stroke:#181818;stroke-width:1.0;"/><line style="stroke:#181818;stroke-width:1.0;" x1="90.5" x2="90.5" y1="400.876" y2="420.876"/><polygon fill="#181818" points="86.5,410.876,90.5,420.876,94.5,410.876,90.5,414.876" style="stroke:#181818;stroke-width:1.0;"/><line style="stroke:#181818;stroke-width:1.0;" x1="306" x2="306" y1="118.1328" y2="153.1328"/><polygon fill="#181818" points="302,143.1328,306,153.1328,310,143.1328,306,147.1328" style="stroke:#181818;stroke-width:1.0;"/><line style="stroke:#181818;stroke-width:1.0;" x1="278.25" x2="306" y1="62" y2="62"/><line style="stroke:#181818;stroke-width:1.0;" x1="306" x2="306" y1="62" y2="84"/><polygon fill="#181818" points="302,74,306,84,310,74,306,78" style="stroke:#181818;stroke-width:1.0;"/><line style="stroke:#181818;stroke-width:1.0;" x1="198.25" x2="198.25" y1="30" y2="50"/><polygon fill="#181818" points="194.25,40,198.25,50,202.25,40,198.25,44" style="stroke:#181818;stroke-width:1.0;"/><!--SRC=[NO-n3e9038RtUugEt2lWuC2Y1YTrDdTGeB5U2QqnlBs84GrRqtx_b_vgOJ173MIxeA38M1dMS7WCf3LLHfAs7gp31Dc8wXq0XuWC7FdAqbAQDWFs66mQ07ucrIbxbXl-14dy307avJjwsHToxoLXiirym5HJimZXsH5Z1ckV1zAlB3y6IgN4EAvaQj8xPCM5F5amB3eHnM45jsBor-ZpXdi1]--></g></svg>