<?xml version="1.0" encoding="UTF-8" standalone="no"?><svg xmlns="http://www.w3.org/2000/svg" xmlns:xlink="http://www.w3.org/1999/xlink" contentStyleType="text/css" height="457px" preserveAspectRatio="none" style="width:554px;height:457px;background:#FFFFFF;" version="1.1" viewBox="0 0 554 457" width="554px" zoomAndPan="magnify"><defs/><g><ellipse cx="333.25" cy="20" fill="#222222" rx="10" ry="10" style="stroke:#222222;stroke-width:1.0;"/><path d="M10,245.1406 L10,300.5391 L124,300.5391 L124,255.1406 L114,245.1406 L10,245.1406 " fill="#FEFFDD" style="stroke:#181818;stroke-width:0.5;"/><path d="M114,245.1406 L114,255.1406 L124,255.1406 L114,245.1406 " fill="#FEFFDD" style="stroke:#181818;stroke-width:0.5;"/><ellipse cx="21.5" cy="257.7734" fill="#000000" rx="2.5" ry="2.5" style="stroke:#000000;stroke-width:0.0;"/><text fill="#000000" font-family="sans-serif" font-size="13" lengthAdjust="spacing" textLength="58" x="28" y="262.2075">Bullet list</text><ellipse cx="21.5" cy="272.9063" fill="#000000" rx="2.5" ry="2.5" style="stroke:#000000;stroke-width:0.0;"/><text fill="#000000" font-family="sans-serif" font-size="13" lengthAdjust="spacing" textLength="81" x="28" y="277.3403">Second item</text><rect fill="#000000" height="3.5" style="stroke:#000000;stroke-width:0.0;" width="3.5" x="25" y="285.5391"/><text fill="#000000" font-family="sans-serif" font-size="13" lengthAdjust="spacing" textLength="50" x="32" y="292.4731">hello.....</text><polygon fill="#F1F1F1" points="260.25,50,406.25,50,418.25,62,406.25,74,260.25,74,248.25,62,260.25,50" style="stroke:#181818;stroke-width:0.5;"/><text fill="#000000" font-family="sans-serif" font-size="11" lengthAdjust="spacing" textLength="146" x="260.25" y="65.8081">Has selected Jurisdiction?</text><text fill="#000000" font-family="sans-serif" font-size="11" lengthAdjust="spacing" textLength="20" x="228.25" y="59.4058">yes</text><text fill="#000000" font-family="sans-serif" font-size="11" lengthAdjust="spacing" textLength="14" x="418.25" y="59.4058">no</text><rect fill="#F1F1F1" height="33.9688" rx="12.5" ry="12.5" style="stroke:#181818;stroke-width:0.5;" width="137" x="150" y="224.3711"/><text fill="#000000" font-family="sans-serif" font-size="12" lengthAdjust="spacing" textLength="117" x="160" y="245.5098">LoginUIComponent</text><polygon fill="#F1F1F1" points="163,175.9688,274,175.9688,286,187.9688,274,199.9688,163,199.9688,151,187.9688,163,175.9688" style="stroke:#181818;stroke-width:0.5;"/><text fill="#000000" font-family="sans-serif" font-size="11" lengthAdjust="spacing" textLength="14" x="222.5" y="210.1792">no</text><text fill="#000000" font-family="sans-serif" font-size="11" lengthAdjust="spacing" textLength="111" x="163" y="191.7769">Has sessionToken?</text><polygon fill="#F1F1F1" points="218.5,282.7422,230.5,294.7422,218.5,306.7422,206.5,294.7422,218.5,282.7422" style="stroke:#181818;stroke-width:0.5;"/><polygon fill="#F1F1F1" points="218.5,119,230.5,131,218.5,143,206.5,131,218.5,119" style="stroke:#181818;stroke-width:0.5;"/><polygon fill="#F1F1F1" points="164,326.7422,273,326.7422,285,338.7422,273,350.7422,164,350.7422,152,338.7422,164,326.7422" style="stroke:#181818;stroke-width:0.5;"/><text fill="#000000" font-family="sans-serif" font-size="11" lengthAdjust="spacing" textLength="105" x="168" y="342.5503">Has sessionToken</text><text fill="#000000" font-family="sans-serif" font-size="11" lengthAdjust="spacing" textLength="14" x="285" y="336.1479">no</text><rect fill="#F1F1F1" height="33.9688" rx="12.5" ry="12.5" style="stroke:#181818;stroke-width:0.5;" width="169" x="134" y="370.7422"/><text fill="#000000" font-family="sans-serif" font-size="12" lengthAdjust="spacing" textLength="149" x="144" y="391.8809">MainLobbyUIComponent</text><ellipse cx="218.5" cy="435.7109" fill="none" rx="11" ry="11" style="stroke:#222222;stroke-width:1.0;"/><ellipse cx="218.5" cy="435.7109" fill="#222222" rx="6" ry="6" style="stroke:#111111;stroke-width:1.0;"/><rect fill="#F1F1F1" height="33.9688" rx="12.5" ry="12.5" style="stroke:#181818;stroke-width:0.5;" width="190" x="353" y="84"/><text fill="#000000" font-family="sans-serif" font-size="12" lengthAdjust="spacing" textLength="170" x="363" y="105.1387">StateChooserUIComponent</text><ellipse cx="449.5" cy="154.4688" fill="#A80036" rx="1.5" ry="1.5" style="stroke:#A80036;stroke-width:1.0;"/><ellipse cx="220" cy="85.5" fill="#A80036" rx="1.5" ry="1.5" style="stroke:#A80036;stroke-width:1.0;"/><line style="stroke:#A80036;stroke-width:1.0;" x1="448" x2="218.5" y1="152.9688" y2="152.9688"/><line style="stroke:#A80036;stroke-width:1.0;" x1="218.5" x2="218.5" y1="84" y2="152.9688"/><line style="stroke:#181818;stroke-width:1.0;" x1="218.5" x2="218.5" y1="199.9688" y2="224.3711"/><polygon fill="#181818" points="214.5,214.3711,218.5,224.3711,222.5,214.3711,218.5,218.3711" style="stroke:#181818;stroke-width:1.0;"/><line style="stroke:#181818;stroke-width:1.0;" x1="286" x2="298" y1="187.9688" y2="187.9688"/><polygon fill="#181818" points="294,231.3555,298,241.3555,302,231.3555,298,235.3555" style="stroke:#181818;stroke-width:1.0;"/><line style="stroke:#181818;stroke-width:1.0;" x1="298" x2="298" y1="187.9688" y2="294.7422"/><line style="stroke:#181818;stroke-width:1.0;" x1="298" x2="230.5" y1="294.7422" y2="294.7422"/><polygon fill="#181818" points="240.5,290.7422,230.5,294.7422,240.5,298.7422,236.5,294.7422" style="stroke:#181818;stroke-width:1.0;"/><line style="stroke:#181818;stroke-width:1.0;" x1="218.5" x2="218.5" y1="258.3398" y2="282.7422"/><polygon fill="#181818" points="214.5,272.7422,218.5,282.7422,222.5,272.7422,218.5,276.7422" style="stroke:#181818;stroke-width:1.0;"/><line style="stroke:#181818;stroke-width:1.0;" x1="218.5" x2="218.5" y1="143" y2="175.9688"/><polygon fill="#181818" points="214.5,165.9688,218.5,175.9688,222.5,165.9688,218.5,169.9688" style="stroke:#181818;stroke-width:1.0;"/><line style="stroke:#181818;stroke-width:1.0;" x1="285" x2="321" y1="338.7422" y2="338.7422"/><polygon fill="#181818" points="317,251.3555,321,241.3555,325,251.3555,321,247.3555" style="stroke:#181818;stroke-width:1.0;"/><line style="stroke:#181818;stroke-width:1.0;" x1="321" x2="321" y1="131" y2="338.7422"/><line style="stroke:#181818;stroke-width:1.0;" x1="321" x2="230.5" y1="131" y2="131"/><polygon fill="#181818" points="240.5,127,230.5,131,240.5,135,236.5,131" style="stroke:#181818;stroke-width:1.0;"/><line style="stroke:#181818;stroke-width:1.0;" x1="218.5" x2="218.5" y1="306.7422" y2="326.7422"/><polygon fill="#181818" points="214.5,316.7422,218.5,326.7422,222.5,316.7422,218.5,320.7422" style="stroke:#181818;stroke-width:1.0;"/><line style="stroke:#181818;stroke-width:1.0;" x1="248.25" x2="218.5" y1="62" y2="62"/><line style="stroke:#181818;stroke-width:1.0;" x1="218.5" x2="218.5" y1="62" y2="119"/><polygon fill="#181818" points="214.5,109,218.5,119,222.5,109,218.5,113" style="stroke:#181818;stroke-width:1.0;"/><line style="stroke:#181818;stroke-width:1.0;" x1="218.5" x2="218.5" y1="350.7422" y2="370.7422"/><polygon fill="#181818" points="214.5,360.7422,218.5,370.7422,222.5,360.7422,218.5,364.7422" style="stroke:#181818;stroke-width:1.0;"/><line style="stroke:#181818;stroke-width:1.0;" x1="218.5" x2="218.5" y1="404.7109" y2="424.7109"/><polygon fill="#181818" points="214.5,414.7109,218.5,424.7109,222.5,414.7109,218.5,418.7109" style="stroke:#181818;stroke-width:1.0;"/><line style="stroke:#181818;stroke-width:1.0;" x1="448" x2="448" y1="117.9688" y2="152.9688"/><polygon fill="#181818" points="444,142.9688,448,152.9688,452,142.9688,448,146.9688" style="stroke:#181818;stroke-width:1.0;"/><line style="stroke:#181818;stroke-width:1.0;" x1="418.25" x2="448" y1="62" y2="62"/><line style="stroke:#181818;stroke-width:1.0;" x1="448" x2="448" y1="62" y2="84"/><polygon fill="#181818" points="444,74,448,84,452,74,448,78" style="stroke:#181818;stroke-width:1.0;"/><line style="stroke:#181818;stroke-width:1.0;" x1="333.25" x2="333.25" y1="30" y2="50"/><polygon fill="#181818" points="329.25,40,333.25,50,337.25,40,333.25,44" style="stroke:#181818;stroke-width:1.0;"/><!--SRC=[NO_DJiD038JlUOevDZtm0EM0H2-0ogbmHfjaqbYuwoXsXVhsP5lHelZadvbF7eyqHIKzLY_9uLIsmGvlfqcyapR4ybED69YnEjFh2j3KKA6DVgaT9C-RYIDJp0rm9xdFtW_xvXsGhRw8WCskM3zVjtOSBJF7u-N0t4b_0-9d4EKAIruDyJ_OvZr9tbdJd1Sm3nihglEct4SARWSpvxGG7opiNwBh6zc2KFObs1hF9rK6LFmwxzbQxY31OvdN6AXg3wMA7yLT_G80]--></g></svg>