<?xml version="1.0" encoding="UTF-8" standalone="no"?><svg xmlns="http://www.w3.org/2000/svg" xmlns:xlink="http://www.w3.org/1999/xlink" contentScriptType="application/ecmascript" contentStyleType="text/css" height="453px" preserveAspectRatio="none" style="width:430px;height:453px;" version="1.1" viewBox="0 0 430 453" width="430px" zoomAndPan="magnify"><defs><filter height="300%" id="fe82on5zftaxm" width="300%" x="-1" y="-1"><feGaussianBlur result="blurOut" stdDeviation="2.0"/><feColorMatrix in="blurOut" result="blurOut2" type="matrix" values="0 0 0 0 0 0 0 0 0 0 0 0 0 0 0 0 0 0 .4 0"/><feOffset dx="4.0" dy="4.0" in="blurOut2" result="blurOut3"/><feBlend in="SourceGraphic" in2="blurOut3" mode="normal"/></filter></defs><g><ellipse cx="209.25" cy="20" fill="#000000" filter="url(#fe82on5zftaxm)" rx="10" ry="10" style="stroke: none; stroke-width: 1.0;"/><polygon fill="#FEFECE" filter="url(#fe82on5zftaxm)" points="136.25,50,282.25,50,294.25,62,282.25,74,136.25,74,124.25,62,136.25,50" style="stroke: #A80036; stroke-width: 1.5;"/><text fill="#000000" font-family="sans-serif" font-size="11" lengthAdjust="spacingAndGlyphs" textLength="146" x="136.25" y="65.8081">Has selected Jurisdiction?</text><text fill="#000000" font-family="sans-serif" font-size="11" lengthAdjust="spacingAndGlyphs" textLength="20" x="104.25" y="59.4058">yes</text><text fill="#000000" font-family="sans-serif" font-size="11" lengthAdjust="spacingAndGlyphs" textLength="14" x="294.25" y="59.4058">no</text><rect fill="#FEFECE" filter="url(#fe82on5zftaxm)" height="33.9688" rx="12.5" ry="12.5" style="stroke: #A80036; stroke-width: 1.5;" width="137" x="26" y="224.3711"/><text fill="#000000" font-family="sans-serif" font-size="12" lengthAdjust="spacingAndGlyphs" textLength="117" x="36" y="245.5098">LoginUIComponent</text><polygon fill="#FEFECE" filter="url(#fe82on5zftaxm)" points="39,175.9688,150,175.9688,162,187.9688,150,199.9688,39,199.9688,27,187.9688,39,175.9688" style="stroke: #A80036; stroke-width: 1.5;"/><text fill="#000000" font-family="sans-serif" font-size="11" lengthAdjust="spacingAndGlyphs" textLength="14" x="98.5" y="210.1792">no</text><text fill="#000000" font-family="sans-serif" font-size="11" lengthAdjust="spacingAndGlyphs" textLength="111" x="39" y="191.7769">Has sessionToken?</text><polygon fill="#FEFECE" filter="url(#fe82on5zftaxm)" points="94.5,278.3398,106.5,290.3398,94.5,302.3398,82.5,290.3398,94.5,278.3398" style="stroke: #A80036; stroke-width: 1.5;"/><polygon fill="#FEFECE" filter="url(#fe82on5zftaxm)" points="94.5,119,106.5,131,94.5,143,82.5,131,94.5,119" style="stroke: #A80036; stroke-width: 1.5;"/><polygon fill="#FEFECE" filter="url(#fe82on5zftaxm)" points="40,322.3398,149,322.3398,161,334.3398,149,346.3398,40,346.3398,28,334.3398,40,322.3398" style="stroke: #A80036; stroke-width: 1.5;"/><text fill="#000000" font-family="sans-serif" font-size="11" lengthAdjust="spacingAndGlyphs" textLength="105" x="44" y="338.1479">Has sessionToken</text><text fill="#000000" font-family="sans-serif" font-size="11" lengthAdjust="spacingAndGlyphs" textLength="14" x="161" y="331.7456">no</text><rect fill="#FEFECE" filter="url(#fe82on5zftaxm)" height="33.9688" rx="12.5" ry="12.5" style="stroke: #A80036; stroke-width: 1.5;" width="169" x="10" y="366.3398"/><text fill="#000000" font-family="sans-serif" font-size="12" lengthAdjust="spacingAndGlyphs" textLength="149" x="20" y="387.4785">MainLobbyUIComponent</text><ellipse cx="94.5" cy="431.3086" fill="#FFFFFF" filter="url(#fe82on5zftaxm)" rx="11" ry="11" style="stroke: #000000; stroke-width: 1.0;"/><ellipse cx="94.5" cy="431.3086" fill="#000000" rx="6" ry="6" style="stroke: #7F7F7F; stroke-width: 1.0;"/><rect fill="#FEFECE" filter="url(#fe82on5zftaxm)" height="33.9688" rx="12.5" ry="12.5" style="stroke: #A80036; stroke-width: 1.5;" width="190" x="229" y="84"/><text fill="#000000" font-family="sans-serif" font-size="12" lengthAdjust="spacingAndGlyphs" textLength="170" x="239" y="105.1387">StateChooserUIComponent</text><ellipse cx="325.5" cy="154.4688" fill="#00FF00" rx="1.5" ry="1.5" style="stroke: #00FF00; stroke-width: 1.0;"/><ellipse cx="96" cy="85.5" fill="#00FF00" rx="1.5" ry="1.5" style="stroke: #00FF00; stroke-width: 1.0;"/><line style="stroke: #00FF00; stroke-width: 1.0;" x1="324" x2="94.5" y1="152.9688" y2="152.9688"/><line style="stroke: #00FF00; stroke-width: 1.0;" x1="94.5" x2="94.5" y1="84" y2="152.9688"/><line style="stroke: #A80036; stroke-width: 1.5;" x1="94.5" x2="94.5" y1="199.9688" y2="224.3711"/><polygon fill="#A80036" points="90.5,214.3711,94.5,224.3711,98.5,214.3711,94.5,218.3711" style="stroke: #A80036; stroke-width: 1.0;"/><line style="stroke: #A80036; stroke-width: 1.5;" x1="162" x2="174" y1="187.9688" y2="187.9688"/><polygon fill="#A80036" points="170,231.3555,174,241.3555,178,231.3555,174,235.3555" style="stroke: #A80036; stroke-width: 1.5;"/><line style="stroke: #A80036; stroke-width: 1.5;" x1="174" x2="174" y1="187.9688" y2="290.3398"/><line style="stroke: #A80036; stroke-width: 1.5;" x1="174" x2="106.5" y1="290.3398" y2="290.3398"/><polygon fill="#A80036" points="116.5,286.3398,106.5,290.3398,116.5,294.3398,112.5,290.3398" style="stroke: #A80036; stroke-width: 1.0;"/><line style="stroke: #A80036; stroke-width: 1.5;" x1="94.5" x2="94.5" y1="258.3398" y2="278.3398"/><polygon fill="#A80036" points="90.5,268.3398,94.5,278.3398,98.5,268.3398,94.5,272.3398" style="stroke: #A80036; stroke-width: 1.0;"/><line style="stroke: #A80036; stroke-width: 1.5;" x1="94.5" x2="94.5" y1="143" y2="175.9688"/><polygon fill="#A80036" points="90.5,165.9688,94.5,175.9688,98.5,165.9688,94.5,169.9688" style="stroke: #A80036; stroke-width: 1.0;"/><line style="stroke: #A80036; stroke-width: 1.5;" x1="161" x2="197" y1="334.3398" y2="334.3398"/><polygon fill="#A80036" points="193,251.3555,197,241.3555,201,251.3555,197,247.3555" style="stroke: #A80036; stroke-width: 1.5;"/><line style="stroke: #A80036; stroke-width: 1.5;" x1="197" x2="197" y1="131" y2="334.3398"/><line style="stroke: #A80036; stroke-width: 1.5;" x1="197" x2="106.5" y1="131" y2="131"/><polygon fill="#A80036" points="116.5,127,106.5,131,116.5,135,112.5,131" style="stroke: #A80036; stroke-width: 1.0;"/><line style="stroke: #A80036; stroke-width: 1.5;" x1="94.5" x2="94.5" y1="302.3398" y2="322.3398"/><polygon fill="#A80036" points="90.5,312.3398,94.5,322.3398,98.5,312.3398,94.5,316.3398" style="stroke: #A80036; stroke-width: 1.0;"/><line style="stroke: #A80036; stroke-width: 1.5;" x1="124.25" x2="94.5" y1="62" y2="62"/><line style="stroke: #A80036; stroke-width: 1.5;" x1="94.5" x2="94.5" y1="62" y2="119"/><polygon fill="#A80036" points="90.5,109,94.5,119,98.5,109,94.5,113" style="stroke: #A80036; stroke-width: 1.0;"/><line style="stroke: #A80036; stroke-width: 1.5;" x1="94.5" x2="94.5" y1="346.3398" y2="366.3398"/><polygon fill="#A80036" points="90.5,356.3398,94.5,366.3398,98.5,356.3398,94.5,360.3398" style="stroke: #A80036; stroke-width: 1.0;"/><line style="stroke: #A80036; stroke-width: 1.5;" x1="94.5" x2="94.5" y1="400.3086" y2="420.3086"/><polygon fill="#A80036" points="90.5,410.3086,94.5,420.3086,98.5,410.3086,94.5,414.3086" style="stroke: #A80036; stroke-width: 1.0;"/><line style="stroke: #A80036; stroke-width: 1.5;" x1="324" x2="324" y1="117.9688" y2="152.9688"/><polygon fill="#A80036" points="320,142.9688,324,152.9688,328,142.9688,324,146.9688" style="stroke: #A80036; stroke-width: 1.0;"/><line style="stroke: #A80036; stroke-width: 1.5;" x1="294.25" x2="324" y1="62" y2="62"/><line style="stroke: #A80036; stroke-width: 1.5;" x1="324" x2="324" y1="62" y2="84"/><polygon fill="#A80036" points="320,74,324,84,328,74,324,78" style="stroke: #A80036; stroke-width: 1.0;"/><line style="stroke: #A80036; stroke-width: 1.5;" x1="209.25" x2="209.25" y1="30" y2="50"/><polygon fill="#A80036" points="205.25,40,209.25,50,213.25,40,209.25,44" style="stroke: #A80036; stroke-width: 1.0;"/><!--MD5=[dde2efe5971fab5972ce5654ac34f784]
@startuml

start
if (Has selected Jurisdiction?) then (yes)
  label lbl_login
  repeat
    if (Has sessionToken?) then (no)
      :LoginUIComponent;
    endif
  repeat while( Has sessionToken) is (no)
  :MainLobbyUIComponent;
  stop
else (no)
  :StateChooserUIComponent;
  goto lbl_login
endif

@enduml

PlantUML version 1.2020.02(Sun Mar 01 10:22:07 GMT 2020)
(GPL source distribution)
Java Runtime: OpenJDK Runtime Environment
JVM: OpenJDK 64-Bit Server VM
Java Version: 11.0.9+11-Ubuntu-0ubuntu1
Operating System: Linux
Default Encoding: ANSI_X3.4-1968
Language: en
Country: US
--></g></svg>