<?xml version="1.0" encoding="UTF-8" standalone="no"?><svg xmlns="http://www.w3.org/2000/svg" xmlns:xlink="http://www.w3.org/1999/xlink" contentStyleType="text/css" height="457px" preserveAspectRatio="none" style="width:493px;height:457px;background:#FFFFFF;" version="1.1" viewBox="0 0 493 457" width="493px" zoomAndPan="magnify"><defs/><g><ellipse cx="272.25" cy="20" fill="#222222" rx="10" ry="10" style="stroke:#222222;stroke-width:1.0;"/><path d="M10,260.2734 L10,285.4063 L63,285.4063 L63,270.2734 L53,260.2734 L10,260.2734 " fill="#FEFFDD" style="stroke:#181818;stroke-width:0.5;"/><path d="M53,260.2734 L53,270.2734 L63,270.2734 L53,260.2734 " fill="#FEFFDD" style="stroke:#181818;stroke-width:0.5;"/><ellipse cx="21.5" cy="272.9063" fill="#000000" rx="2.5" ry="2.5" style="stroke:#000000;stroke-width:0.0;"/><text fill="#000000" font-family="sans-serif" font-size="13" lengthAdjust="spacing" textLength="20" x="28" y="277.3403">foo</text><polygon fill="#F1F1F1" points="199.25,50,345.25,50,357.25,62,345.25,74,199.25,74,187.25,62,199.25,50" style="stroke:#181818;stroke-width:0.5;"/><text fill="#000000" font-family="sans-serif" font-size="11" lengthAdjust="spacing" textLength="146" x="199.25" y="65.8081">Has selected Jurisdiction?</text><text fill="#000000" font-family="sans-serif" font-size="11" lengthAdjust="spacing" textLength="20" x="167.25" y="59.4058">yes</text><text fill="#000000" font-family="sans-serif" font-size="11" lengthAdjust="spacing" textLength="14" x="357.25" y="59.4058">no</text><rect fill="#F1F1F1" height="33.9688" rx="12.5" ry="12.5" style="stroke:#181818;stroke-width:0.5;" width="137" x="89" y="224.3711"/><text fill="#000000" font-family="sans-serif" font-size="12" lengthAdjust="spacing" textLength="117" x="99" y="245.5098">LoginUIComponent</text><polygon fill="#F1F1F1" points="102,175.9688,213,175.9688,225,187.9688,213,199.9688,102,199.9688,90,187.9688,102,175.9688" style="stroke:#181818;stroke-width:0.5;"/><text fill="#000000" font-family="sans-serif" font-size="11" lengthAdjust="spacing" textLength="14" x="161.5" y="210.1792">no</text><text fill="#000000" font-family="sans-serif" font-size="11" lengthAdjust="spacing" textLength="111" x="102" y="191.7769">Has sessionToken?</text><polygon fill="#F1F1F1" points="157.5,282.7422,169.5,294.7422,157.5,306.7422,145.5,294.7422,157.5,282.7422" style="stroke:#181818;stroke-width:0.5;"/><polygon fill="#F1F1F1" points="157.5,119,169.5,131,157.5,143,145.5,131,157.5,119" style="stroke:#181818;stroke-width:0.5;"/><polygon fill="#F1F1F1" points="103,326.7422,212,326.7422,224,338.7422,212,350.7422,103,350.7422,91,338.7422,103,326.7422" style="stroke:#181818;stroke-width:0.5;"/><text fill="#000000" font-family="sans-serif" font-size="11" lengthAdjust="spacing" textLength="105" x="107" y="342.5503">Has sessionToken</text><text fill="#000000" font-family="sans-serif" font-size="11" lengthAdjust="spacing" textLength="14" x="224" y="336.1479">no</text><rect fill="#F1F1F1" height="33.9688" rx="12.5" ry="12.5" style="stroke:#181818;stroke-width:0.5;" width="169" x="73" y="370.7422"/><text fill="#000000" font-family="sans-serif" font-size="12" lengthAdjust="spacing" textLength="149" x="83" y="391.8809">MainLobbyUIComponent</text><ellipse cx="157.5" cy="435.7109" fill="none" rx="11" ry="11" style="stroke:#222222;stroke-width:1.0;"/><ellipse cx="157.5" cy="435.7109" fill="#222222" rx="6" ry="6" style="stroke:#111111;stroke-width:1.0;"/><rect fill="#F1F1F1" height="33.9688" rx="12.5" ry="12.5" style="stroke:#181818;stroke-width:0.5;" width="190" x="292" y="84"/><text fill="#000000" font-family="sans-serif" font-size="12" lengthAdjust="spacing" textLength="170" x="302" y="105.1387">StateChooserUIComponent</text><ellipse cx="388.5" cy="154.4688" fill="#A80036" rx="1.5" ry="1.5" style="stroke:#A80036;stroke-width:1.0;"/><ellipse cx="159" cy="85.5" fill="#A80036" rx="1.5" ry="1.5" style="stroke:#A80036;stroke-width:1.0;"/><line style="stroke:#A80036;stroke-width:1.0;" x1="387" x2="157.5" y1="152.9688" y2="152.9688"/><line style="stroke:#A80036;stroke-width:1.0;" x1="157.5" x2="157.5" y1="84" y2="152.9688"/><line style="stroke:#181818;stroke-width:1.0;" x1="157.5" x2="157.5" y1="199.9688" y2="224.3711"/><polygon fill="#181818" points="153.5,214.3711,157.5,224.3711,161.5,214.3711,157.5,218.3711" style="stroke:#181818;stroke-width:1.0;"/><line style="stroke:#181818;stroke-width:1.0;" x1="225" x2="237" y1="187.9688" y2="187.9688"/><polygon fill="#181818" points="233,231.3555,237,241.3555,241,231.3555,237,235.3555" style="stroke:#181818;stroke-width:1.0;"/><line style="stroke:#181818;stroke-width:1.0;" x1="237" x2="237" y1="187.9688" y2="294.7422"/><line style="stroke:#181818;stroke-width:1.0;" x1="237" x2="169.5" y1="294.7422" y2="294.7422"/><polygon fill="#181818" points="179.5,290.7422,169.5,294.7422,179.5,298.7422,175.5,294.7422" style="stroke:#181818;stroke-width:1.0;"/><line style="stroke:#181818;stroke-width:1.0;" x1="157.5" x2="157.5" y1="258.3398" y2="282.7422"/><polygon fill="#181818" points="153.5,272.7422,157.5,282.7422,161.5,272.7422,157.5,276.7422" style="stroke:#181818;stroke-width:1.0;"/><line style="stroke:#181818;stroke-width:1.0;" x1="157.5" x2="157.5" y1="143" y2="175.9688"/><polygon fill="#181818" points="153.5,165.9688,157.5,175.9688,161.5,165.9688,157.5,169.9688" style="stroke:#181818;stroke-width:1.0;"/><line style="stroke:#181818;stroke-width:1.0;" x1="224" x2="260" y1="338.7422" y2="338.7422"/><polygon fill="#181818" points="256,251.3555,260,241.3555,264,251.3555,260,247.3555" style="stroke:#181818;stroke-width:1.0;"/><line style="stroke:#181818;stroke-width:1.0;" x1="260" x2="260" y1="131" y2="338.7422"/><line style="stroke:#181818;stroke-width:1.0;" x1="260" x2="169.5" y1="131" y2="131"/><polygon fill="#181818" points="179.5,127,169.5,131,179.5,135,175.5,131" style="stroke:#181818;stroke-width:1.0;"/><line style="stroke:#181818;stroke-width:1.0;" x1="157.5" x2="157.5" y1="306.7422" y2="326.7422"/><polygon fill="#181818" points="153.5,316.7422,157.5,326.7422,161.5,316.7422,157.5,320.7422" style="stroke:#181818;stroke-width:1.0;"/><line style="stroke:#181818;stroke-width:1.0;" x1="187.25" x2="157.5" y1="62" y2="62"/><line style="stroke:#181818;stroke-width:1.0;" x1="157.5" x2="157.5" y1="62" y2="119"/><polygon fill="#181818" points="153.5,109,157.5,119,161.5,109,157.5,113" style="stroke:#181818;stroke-width:1.0;"/><line style="stroke:#181818;stroke-width:1.0;" x1="157.5" x2="157.5" y1="350.7422" y2="370.7422"/><polygon fill="#181818" points="153.5,360.7422,157.5,370.7422,161.5,360.7422,157.5,364.7422" style="stroke:#181818;stroke-width:1.0;"/><line style="stroke:#181818;stroke-width:1.0;" x1="157.5" x2="157.5" y1="404.7109" y2="424.7109"/><polygon fill="#181818" points="153.5,414.7109,157.5,424.7109,161.5,414.7109,157.5,418.7109" style="stroke:#181818;stroke-width:1.0;"/><line style="stroke:#181818;stroke-width:1.0;" x1="387" x2="387" y1="117.9688" y2="152.9688"/><polygon fill="#181818" points="383,142.9688,387,152.9688,391,142.9688,387,146.9688" style="stroke:#181818;stroke-width:1.0;"/><line style="stroke:#181818;stroke-width:1.0;" x1="357.25" x2="387" y1="62" y2="62"/><line style="stroke:#181818;stroke-width:1.0;" x1="387" x2="387" y1="62" y2="84"/><polygon fill="#181818" points="383,74,387,84,391,74,387,78" style="stroke:#181818;stroke-width:1.0;"/><line style="stroke:#181818;stroke-width:1.0;" x1="272.25" x2="272.25" y1="30" y2="50"/><polygon fill="#181818" points="268.25,40,272.25,50,276.25,40,272.25,44" style="stroke:#181818;stroke-width:1.0;"/><!--SRC=[NO-nJiDW38JtFCMD2OzG1eOkWCf4cT6Vvj9O63kAZQg-VPCYMfJDEjzzkeiiKrRIetukWQ3oaEpm-ZD9T798SNjga0CDzPdHL82MbWfjzLFzA3Oh4qUMd0_WJegOitl_uXrWtbnDm6QtH3zUjluzkj7oyVgWTTBVW3WDegonvZMG-8DjtehOpjlsl895-bXHWpVdUvRaTd0FJYlpqTF_BVgjOPw4ib-6FQ1tNtGiQdK1]--></g></svg>