<?xml version="1.0" encoding="UTF-8" standalone="no"?><svg xmlns="http://www.w3.org/2000/svg" xmlns:xlink="http://www.w3.org/1999/xlink" contentStyleType="text/css" height="453px" preserveAspectRatio="none" style="width:431px;height:453px;background:#FFFFFF;" version="1.1" viewBox="0 0 431 453" width="431px" zoomAndPan="magnify"><defs/><g><ellipse cx="210.25" cy="20" fill="#222222" rx="10" ry="10" style="stroke:#222222;stroke-width:1.0;"/><polygon fill="#F1F1F1" points="137.25,50,283.25,50,295.25,62,283.25,74,137.25,74,125.25,62,137.25,50" style="stroke:#181818;stroke-width:0.5;"/><text fill="#000000" font-family="sans-serif" font-size="11" lengthAdjust="spacing" textLength="146" x="137.25" y="65.8081">Has selected Jurisdiction?</text><text fill="#000000" font-family="sans-serif" font-size="11" lengthAdjust="spacing" textLength="20" x="105.25" y="59.4058">yes</text><text fill="#000000" font-family="sans-serif" font-size="11" lengthAdjust="spacing" textLength="14" x="295.25" y="59.4058">no</text><rect fill="#F1F1F1" height="33.9688" rx="12.5" ry="12.5" style="stroke:#181818;stroke-width:0.5;" width="137" x="27" y="224.3711"/><text fill="#000000" font-family="sans-serif" font-size="12" lengthAdjust="spacing" textLength="117" x="37" y="245.5098">LoginUIComponent</text><polygon fill="#F1F1F1" points="40,175.9688,151,175.9688,163,187.9688,151,199.9688,40,199.9688,28,187.9688,40,175.9688" style="stroke:#181818;stroke-width:0.5;"/><text fill="#000000" font-family="sans-serif" font-size="11" lengthAdjust="spacing" textLength="14" x="99.5" y="210.1792">no</text><text fill="#000000" font-family="sans-serif" font-size="11" lengthAdjust="spacing" textLength="111" x="40" y="191.7769">Has sessionToken?</text><polygon fill="#F1F1F1" points="95.5,278.3398,107.5,290.3398,95.5,302.3398,83.5,290.3398,95.5,278.3398" style="stroke:#181818;stroke-width:0.5;"/><polygon fill="#F1F1F1" points="95.5,119,107.5,131,95.5,143,83.5,131,95.5,119" style="stroke:#181818;stroke-width:0.5;"/><polygon fill="#F1F1F1" points="41,322.3398,150,322.3398,162,334.3398,150,346.3398,41,346.3398,29,334.3398,41,322.3398" style="stroke:#181818;stroke-width:0.5;"/><text fill="#000000" font-family="sans-serif" font-size="11" lengthAdjust="spacing" textLength="105" x="45" y="338.1479">Has sessionToken</text><text fill="#000000" font-family="sans-serif" font-size="11" lengthAdjust="spacing" textLength="14" x="162" y="331.7456">no</text><rect fill="#F1F1F1" height="33.9688" rx="12.5" ry="12.5" style="stroke:#181818;stroke-width:0.5;" width="169" x="11" y="366.3398"/><text fill="#000000" font-family="sans-serif" font-size="12" lengthAdjust="spacing" textLength="149" x="21" y="387.4785">MainLobbyUIComponent</text><ellipse cx="95.5" cy="431.3086" fill="none" rx="11" ry="11" style="stroke:#222222;stroke-width:1.0;"/><ellipse cx="95.5" cy="431.3086" fill="#222222" rx="6" ry="6" style="stroke:#111111;stroke-width:1.0;"/><rect fill="#F1F1F1" height="33.9688" rx="12.5" ry="12.5" style="stroke:#181818;stroke-width:0.5;" width="190" x="230" y="84"/><text fill="#000000" font-family="sans-serif" font-size="12" lengthAdjust="spacing" textLength="170" x="240" y="105.1387">StateChooserUIComponent</text><ellipse cx="326.5" cy="154.4688" fill="#A80036" rx="1.5" ry="1.5" style="stroke:#A80036;stroke-width:1.0;"/><ellipse cx="97" cy="85.5" fill="#A80036" rx="1.5" ry="1.5" style="stroke:#A80036;stroke-width:1.0;"/><line style="stroke:#A80036;stroke-width:1.0;" x1="325" x2="95.5" y1="152.9688" y2="152.9688"/><line style="stroke:#A80036;stroke-width:1.0;" x1="95.5" x2="95.5" y1="84" y2="152.9688"/><line style="stroke:#181818;stroke-width:1.0;" x1="95.5" x2="95.5" y1="199.9688" y2="224.3711"/><polygon fill="#181818" points="91.5,214.3711,95.5,224.3711,99.5,214.3711,95.5,218.3711" style="stroke:#181818;stroke-width:1.0;"/><line style="stroke:#181818;stroke-width:1.0;" x1="163" x2="175" y1="187.9688" y2="187.9688"/><polygon fill="#181818" points="171,231.3555,175,241.3555,179,231.3555,175,235.3555" style="stroke:#181818;stroke-width:1.0;"/><line style="stroke:#181818;stroke-width:1.0;" x1="175" x2="175" y1="187.9688" y2="290.3398"/><line style="stroke:#181818;stroke-width:1.0;" x1="175" x2="107.5" y1="290.3398" y2="290.3398"/><polygon fill="#181818" points="117.5,286.3398,107.5,290.3398,117.5,294.3398,113.5,290.3398" style="stroke:#181818;stroke-width:1.0;"/><line style="stroke:#181818;stroke-width:1.0;" x1="95.5" x2="95.5" y1="258.3398" y2="278.3398"/><polygon fill="#181818" points="91.5,268.3398,95.5,278.3398,99.5,268.3398,95.5,272.3398" style="stroke:#181818;stroke-width:1.0;"/><line style="stroke:#181818;stroke-width:1.0;" x1="95.5" x2="95.5" y1="143" y2="175.9688"/><polygon fill="#181818" points="91.5,165.9688,95.5,175.9688,99.5,165.9688,95.5,169.9688" style="stroke:#181818;stroke-width:1.0;"/><line style="stroke:#181818;stroke-width:1.0;" x1="162" x2="198" y1="334.3398" y2="334.3398"/><polygon fill="#181818" points="194,251.3555,198,241.3555,202,251.3555,198,247.3555" style="stroke:#181818;stroke-width:1.0;"/><line style="stroke:#181818;stroke-width:1.0;" x1="198" x2="198" y1="131" y2="334.3398"/><line style="stroke:#181818;stroke-width:1.0;" x1="198" x2="107.5" y1="131" y2="131"/><polygon fill="#181818" points="117.5,127,107.5,131,117.5,135,113.5,131" style="stroke:#181818;stroke-width:1.0;"/><line style="stroke:#181818;stroke-width:1.0;" x1="95.5" x2="95.5" y1="302.3398" y2="322.3398"/><polygon fill="#181818" points="91.5,312.3398,95.5,322.3398,99.5,312.3398,95.5,316.3398" style="stroke:#181818;stroke-width:1.0;"/><line style="stroke:#181818;stroke-width:1.0;" x1="125.25" x2="95.5" y1="62" y2="62"/><line style="stroke:#181818;stroke-width:1.0;" x1="95.5" x2="95.5" y1="62" y2="119"/><polygon fill="#181818" points="91.5,109,95.5,119,99.5,109,95.5,113" style="stroke:#181818;stroke-width:1.0;"/><line style="stroke:#181818;stroke-width:1.0;" x1="95.5" x2="95.5" y1="346.3398" y2="366.3398"/><polygon fill="#181818" points="91.5,356.3398,95.5,366.3398,99.5,356.3398,95.5,360.3398" style="stroke:#181818;stroke-width:1.0;"/><line style="stroke:#181818;stroke-width:1.0;" x1="95.5" x2="95.5" y1="400.3086" y2="420.3086"/><polygon fill="#181818" points="91.5,410.3086,95.5,420.3086,99.5,410.3086,95.5,414.3086" style="stroke:#181818;stroke-width:1.0;"/><line style="stroke:#181818;stroke-width:1.0;" x1="325" x2="325" y1="117.9688" y2="152.9688"/><polygon fill="#181818" points="321,142.9688,325,152.9688,329,142.9688,325,146.9688" style="stroke:#181818;stroke-width:1.0;"/><line style="stroke:#181818;stroke-width:1.0;" x1="295.25" x2="325" y1="62" y2="62"/><line style="stroke:#181818;stroke-width:1.0;" x1="325" x2="325" y1="62" y2="84"/><polygon fill="#181818" points="321,74,325,84,329,74,325,78" style="stroke:#181818;stroke-width:1.0;"/><line style="stroke:#181818;stroke-width:1.0;" x1="210.25" x2="210.25" y1="30" y2="50"/><polygon fill="#181818" points="206.25,40,210.25,50,214.25,40,210.25,44" style="stroke:#181818;stroke-width:1.0;"/><!--SRC=[NO-n3e9038RtUugEt2lWuC2Y1YTrDdTGeB5U2QqnlBs84GrRqtx_b_vgOJ173MIxeA38M1dMS7WCf3LLHfAs7gp31Dc8wXq0XuWC7FdAqbAQDWFs66mQ07ucrIbxbXl-14dy307avJjwsHToxoLXiirym5HJimZXsH5Z1ckV1zAlB3y6IgN4EAvaQj8xPCM5F5amB3eHnM45jsBor-ZpXdi1]--></g></svg>