<?xml version="1.0" encoding="UTF-8" standalone="no"?><svg xmlns="http://www.w3.org/2000/svg" xmlns:xlink="http://www.w3.org/1999/xlink" contentStyleType="text/css" height="118px" preserveAspectRatio="none" style="width:178px;height:118px;background:#FFFFFF;" version="1.1" viewBox="0 0 178 118" width="178px" zoomAndPan="magnify"><defs/><g><!--class MenuItem--><g id="elem_MenuItem"><rect codeLine="2" fill="#F1F1F1" height="97.4648" id="MenuItem" rx="2.5" ry="2.5" style="stroke:#181818;stroke-width:0.5;" width="157" x="7" y="7"/><ellipse cx="47.65" cy="23" fill="#ADD1B2" rx="11" ry="11" style="stroke:#181818;stroke-width:1.0;"/><path d="M50.1231,29.1431 Q49.5421,29.4419 48.9029,29.5913 Q48.2638,29.7407 47.5582,29.7407 Q45.0514,29.7407 43.7315,28.0889 Q42.4117,26.437 42.4117,23.3159 Q42.4117,20.1865 43.7315,18.5347 Q45.0514,16.8828 47.5582,16.8828 Q48.2638,16.8828 48.9112,17.0322 Q49.5587,17.1816 50.1231,17.4805 L50.1231,20.2031 Q49.4923,19.6221 48.8988,19.3523 Q48.3053,19.0825 47.6744,19.0825 Q46.3297,19.0825 45.6449,20.1492 Q44.9601,21.2158 44.9601,23.3159 Q44.9601,25.4077 45.6449,26.4744 Q46.3297,27.541 47.6744,27.541 Q48.3053,27.541 48.8988,27.2712 Q49.4923,27.0015 50.1231,26.4204 Z " fill="#000000"/><text fill="#000000" font-family="sans-serif" font-size="14" lengthAdjust="spacing" textLength="68" x="67.35" y="28.291">MenuItem</text><line style="stroke:#181818;stroke-width:0.5;" x1="8" x2="163" y1="39" y2="39"/><text fill="#000000" font-family="sans-serif" font-size="14" lengthAdjust="spacing" textLength="83" x="13" y="56.5352">String name</text><text fill="#000000" font-family="sans-serif" font-size="14" lengthAdjust="spacing" textLength="145" x="13" y="73.0234">String navigationLink</text><text fill="#000000" font-family="sans-serif" font-size="14" lengthAdjust="spacing" textLength="88" x="13" y="89.5117">String theme</text><line style="stroke:#181818;stroke-width:0.5;" x1="8" x2="163" y1="96.4648" y2="96.4648"/></g><!--SRC=[Iyv9B2vMy4tDA_KiISrLgEPIK0WkAShCIrV8IynDHUQLPQOdbcJcv_bavcKZn4ioKe7AQha0]--></g></svg>