<?xml version="1.0" encoding="UTF-8" standalone="no"?><svg xmlns="http://www.w3.org/2000/svg" xmlns:xlink="http://www.w3.org/1999/xlink" contentStyleType="text/css" height="252px" preserveAspectRatio="none" style="width:494px;height:252px;background:#FFFFFF;" version="1.1" viewBox="0 0 494 252" width="494px" zoomAndPan="magnify"><defs/><g><!--class TopBarLobby--><g id="elem_TopBarLobby"><rect codeLine="1" fill="#F1F1F1" height="80.9766" id="TopBarLobby" rx="2.5" ry="2.5" style="stroke:#181818;stroke-width:0.5;" width="275" x="7" y="7"/><ellipse cx="95.25" cy="23" fill="#ADD1B2" rx="11" ry="11" style="stroke:#181818;stroke-width:1.0;"/><path d="M97.7231,29.1431 Q97.1421,29.4419 96.5029,29.5913 Q95.8638,29.7407 95.1582,29.7407 Q92.6514,29.7407 91.3315,28.0889 Q90.0117,26.437 90.0117,23.3159 Q90.0117,20.1865 91.3315,18.5347 Q92.6514,16.8828 95.1582,16.8828 Q95.8638,16.8828 96.5112,17.0322 Q97.1587,17.1816 97.7231,17.4805 L97.7231,20.2031 Q97.0923,19.6221 96.4988,19.3523 Q95.9053,19.0825 95.2744,19.0825 Q93.9297,19.0825 93.2449,20.1492 Q92.5601,21.2158 92.5601,23.3159 Q92.5601,25.4077 93.2449,26.4744 Q93.9297,27.541 95.2744,27.541 Q95.9053,27.541 96.4988,27.2712 Q97.0923,27.0015 97.7231,26.4204 Z " fill="#000000"/><text fill="#000000" font-family="sans-serif" font-size="14" lengthAdjust="spacing" textLength="90" x="115.75" y="28.291">TopBarLobby</text><line style="stroke:#181818;stroke-width:0.5;" x1="8" x2="281" y1="39" y2="39"/><text fill="#000000" font-family="sans-serif" font-size="14" lengthAdjust="spacing" textLength="235" x="13" y="56.5352">HamburgerMenu hamburgerMenu</text><text fill="#000000" font-family="sans-serif" font-size="14" lengthAdjust="spacing" textLength="263" x="13" y="73.0234">GeocomplyTestButtton geocomplyTest</text><line style="stroke:#181818;stroke-width:0.5;" x1="8" x2="281" y1="79.9766" y2="79.9766"/></g><!--class HamburgerMenu--><g id="elem_HamburgerMenu"><rect codeLine="5" fill="#F1F1F1" height="64.4883" id="HamburgerMenu" rx="2.5" ry="2.5" style="stroke:#181818;stroke-width:0.5;" width="170" x="317.5" y="15.5"/><ellipse cx="342.4" cy="31.5" fill="#ADD1B2" rx="11" ry="11" style="stroke:#181818;stroke-width:1.0;"/><path d="M344.8731,37.6431 Q344.2921,37.9419 343.6529,38.0913 Q343.0138,38.2407 342.3082,38.2407 Q339.8014,38.2407 338.4815,36.5889 Q337.1617,34.937 337.1617,31.8159 Q337.1617,28.6865 338.4815,27.0347 Q339.8014,25.3828 342.3082,25.3828 Q343.0138,25.3828 343.6612,25.5322 Q344.3087,25.6816 344.8731,25.9805 L344.8731,28.7031 Q344.2423,28.1221 343.6488,27.8523 Q343.0553,27.5825 342.4244,27.5825 Q341.0797,27.5825 340.3949,28.6492 Q339.7101,29.7158 339.7101,31.8159 Q339.7101,33.9077 340.3949,34.9744 Q341.0797,36.041 342.4244,36.041 Q343.0553,36.041 343.6488,35.7712 Q344.2423,35.5015 344.8731,34.9204 Z " fill="#000000"/><text fill="#000000" font-family="sans-serif" font-size="14" lengthAdjust="spacing" textLength="116" x="358.6" y="36.791">HamburgerMenu</text><line style="stroke:#181818;stroke-width:0.5;" x1="318.5" x2="486.5" y1="47.5" y2="47.5"/><text fill="#000000" font-family="sans-serif" font-size="14" lengthAdjust="spacing" textLength="158" x="323.5" y="65.0352">MenuItem menuItems[]</text><line style="stroke:#181818;stroke-width:0.5;" x1="318.5" x2="486.5" y1="71.9883" y2="71.9883"/></g><!--class MenuItem--><g id="elem_MenuItem"><rect codeLine="8" fill="#F1F1F1" height="97.4648" id="MenuItem" rx="2.5" ry="2.5" style="stroke:#181818;stroke-width:0.5;" width="157" x="66" y="148"/><ellipse cx="106.65" cy="164" fill="#ADD1B2" rx="11" ry="11" style="stroke:#181818;stroke-width:1.0;"/><path d="M109.1231,170.1431 Q108.5421,170.4419 107.9029,170.5913 Q107.2638,170.7407 106.5582,170.7407 Q104.0514,170.7407 102.7315,169.0889 Q101.4117,167.437 101.4117,164.3159 Q101.4117,161.1865 102.7315,159.5347 Q104.0514,157.8828 106.5582,157.8828 Q107.2638,157.8828 107.9112,158.0322 Q108.5587,158.1816 109.1231,158.4805 L109.1231,161.2031 Q108.4923,160.6221 107.8988,160.3523 Q107.3053,160.0825 106.6744,160.0825 Q105.3297,160.0825 104.6449,161.1492 Q103.9601,162.2158 103.9601,164.3159 Q103.9601,166.4077 104.6449,167.4744 Q105.3297,168.541 106.6744,168.541 Q107.3053,168.541 107.8988,168.2712 Q108.4923,168.0015 109.1231,167.4204 Z " fill="#000000"/><text fill="#000000" font-family="sans-serif" font-size="14" lengthAdjust="spacing" textLength="68" x="126.35" y="169.291">MenuItem</text><line style="stroke:#181818;stroke-width:0.5;" x1="67" x2="222" y1="180" y2="180"/><text fill="#000000" font-family="sans-serif" font-size="14" lengthAdjust="spacing" textLength="83" x="72" y="197.5352">String name</text><text fill="#000000" font-family="sans-serif" font-size="14" lengthAdjust="spacing" textLength="145" x="72" y="214.0234">String navigationLink</text><text fill="#000000" font-family="sans-serif" font-size="14" lengthAdjust="spacing" textLength="88" x="72" y="230.5117">String theme</text><line style="stroke:#181818;stroke-width:0.5;" x1="67" x2="222" y1="237.4648" y2="237.4648"/></g><!--class GeocomplyTestButton--><g id="elem_GeocomplyTestButton"><rect codeLine="14" fill="#F1F1F1" height="48" id="GeocomplyTestButton" rx="2.5" ry="2.5" style="stroke:#181818;stroke-width:0.5;" width="182" x="258.5" y="172.5"/><ellipse cx="273.5" cy="188.5" fill="#ADD1B2" rx="11" ry="11" style="stroke:#181818;stroke-width:1.0;"/><path d="M275.9731,194.6431 Q275.3921,194.9419 274.7529,195.0913 Q274.1138,195.2407 273.4082,195.2407 Q270.9014,195.2407 269.5815,193.5889 Q268.2617,191.937 268.2617,188.8159 Q268.2617,185.6865 269.5815,184.0347 Q270.9014,182.3828 273.4082,182.3828 Q274.1138,182.3828 274.7612,182.5322 Q275.4087,182.6816 275.9731,182.9805 L275.9731,185.7031 Q275.3423,185.1221 274.7488,184.8523 Q274.1553,184.5825 273.5244,184.5825 Q272.1797,184.5825 271.4949,185.6492 Q270.8101,186.7158 270.8101,188.8159 Q270.8101,190.9077 271.4949,191.9744 Q272.1797,193.041 273.5244,193.041 Q274.1553,193.041 274.7488,192.7712 Q275.3423,192.5015 275.9731,191.9204 Z " fill="#000000"/><text fill="#000000" font-family="sans-serif" font-size="14" lengthAdjust="spacing" textLength="150" x="287.5" y="193.791">GeocomplyTestButton</text><line style="stroke:#181818;stroke-width:0.5;" x1="259.5" x2="439.5" y1="204.5" y2="204.5"/><line style="stroke:#181818;stroke-width:0.5;" x1="259.5" x2="439.5" y1="212.5" y2="212.5"/></g><!--SRC=[POvD2i8m48NtESMSfHiLwihkn4KIXZJOp9Ha8fJIkvj8gH5txu-FPoUT4WmyTphsRCm2gm8uws1oT1YlI1d6rfNsX6mvpDCoO98kYmWJk3PKcx8Vy2-eegku20O8kqZtnp4_ohgyIVJaW7J0rhsyq-APUa_FRouZbjccTj3VnV9mBVKR]--></g></svg>